<?xml version="1.0" standalone="no"?>
<!DOCTYPE svg PUBLIC "-//W3C//DTD SVG 20010904//EN"
 "http://www.w3.org/TR/2001/REC-SVG-20010904/DTD/svg10.dtd">
<svg version="1.0" xmlns="http://www.w3.org/2000/svg"
 width="824.000000pt" height="33.000000pt" viewBox="0 0 824.000000 33.000000"
 preserveAspectRatio="xMidYMid meet">
<metadata>
Created by potrace 1.12, written by Peter Selinger 2001-2015
</metadata>
<g transform="translate(0.000000,33.000000) scale(0.100000,-0.100000)"
fill="#000000" stroke="none">
<path d="M1 283 c0 -43 2 -45 10 -22 12 33 51 52 82 40 12 -5 90 -50 172 -101
177 -108 200 -121 209 -113 3 4 6 50 6 104 0 84 3 100 18 108 11 6 24 6 35 0
15 -9 17 -27 17 -130 0 -114 -1 -121 -25 -144 l-24 -25 107 0 107 0 -31 19
c-64 39 -86 156 -41 222 40 61 71 69 257 69 186 0 217 -8 257 -69 47 -70 22
-185 -48 -223 l-34 -18 97 0 98 0 -10 26 c-13 34 -13 193 0 231 13 36 50 56
83 44 12 -5 90 -50 172 -101 177 -108 200 -121 209 -113 3 4 6 50 6 104 0 84
3 100 18 108 11 6 24 6 35 0 15 -9 17 -27 17 -130 0 -114 -1 -121 -25 -144
l-24 -25 250 0 249 0 -32 29 -33 29 0 117 c0 123 8 145 47 124 15 -8 18 -26
20 -117 l3 -107 224 -3 c145 -1 229 -6 238 -13 16 -14 17 -46 1 -52 -7 -3 13
-6 44 -6 l57 -1 -10 30 c-6 16 -9 81 -7 145 3 123 12 144 50 124 16 -9 18 -25
18 -142 0 -90 -4 -137 -12 -145 -9 -9 1 -12 45 -12 l57 0 -10 26 c-13 34 -13
193 0 231 13 36 50 56 83 44 12 -5 90 -50 172 -101 177 -108 200 -121 209
-113 3 4 6 50 6 104 0 84 3 100 18 108 11 6 24 6 35 0 15 -9 17 -27 17 -130 0
-114 -1 -121 -25 -144 l-24 -25 92 0 c87 1 90 2 65 16 -47 25 -64 152 -22 168
9 3 125 6 259 6 257 0 272 -3 263 -47 -3 -17 -21 -18 -241 -21 l-238 -2 3 -23
3 -22 265 -2 265 -3 87 119 c70 97 92 120 118 126 54 12 81 -9 179 -141 73
-98 92 -130 89 -149 -5 -24 -3 -25 42 -25 l47 0 -10 37 c-6 27 -6 51 2 80 19
68 36 73 270 73 201 0 226 4 201 35 -10 12 -56 15 -239 17 l-226 3 -3 24 c-2
13 2 28 10 32 7 5 109 9 226 9 268 0 302 -11 302 -100 0 -35 -46 -90 -75 -90
-10 0 1 -13 27 -33 45 -35 59 -64 36 -78 -7 -5 92 -9 230 -9 l242 0 -32 29
-33 29 0 117 c0 123 8 145 47 124 15 -8 18 -26 20 -117 l3 -107 224 -3 c145
-1 229 -6 238 -13 16 -14 17 -46 1 -52 -7 -3 28 -6 77 -6 l90 -1 -31 19 c-64
39 -86 156 -41 222 40 61 71 69 257 69 186 0 217 -8 257 -69 47 -70 22 -185
-48 -223 l-34 -18 140 0 140 0 -31 19 c-64 39 -86 156 -41 222 42 63 66 69
302 69 116 0 216 -4 223 -9 8 -4 12 -19 10 -32 l-3 -24 -227 -5 c-254 -6 -255
-6 -265 -76 -4 -30 0 -45 17 -67 l22 -27 196 2 c189 3 197 4 197 23 0 19 -8
20 -149 25 -124 4 -151 8 -159 22 -8 12 -7 21 2 32 11 13 38 16 158 16 165 0
194 -9 213 -64 13 -40 -5 -96 -37 -115 -14 -8 -2 -10 54 -11 l72 0 -10 30 c-6
16 -9 81 -7 145 3 123 12 144 50 124 16 -9 18 -25 18 -142 0 -90 -4 -137 -12
-145 -9 -9 10 -12 88 -12 l99 0 -31 19 c-64 39 -86 156 -41 222 42 63 66 69
302 69 116 0 216 -4 223 -9 8 -4 12 -19 10 -32 l-3 -24 -228 -5 c-226 -5 -229
-5 -248 -29 -25 -31 -24 -82 2 -115 l20 -26 217 0 c119 0 223 -4 231 -9 8 -5
12 -19 9 -35 -3 -14 -1 -26 3 -26 5 0 9 74 9 165 l0 165 -4120 0 -4120 0 1
-47z m4105 13 c15 -12 17 -18 8 -33 -10 -17 -31 -18 -280 -18 l-269 0 -3 24
c-2 13 2 28 10 32 7 5 126 9 264 9 202 0 254 -3 270 -14z"/>
<path d="M4277 125 l-97 -125 208 0 c114 0 202 4 196 8 -6 4 -50 60 -99 125
-48 64 -93 117 -100 117 -6 0 -55 -56 -108 -125z"/>
<path d="M705 215 c-31 -30 -33 -82 -4 -119 l20 -26 179 0 179 0 20 26 c29 37
27 89 -4 119 -24 25 -27 25 -195 25 -168 0 -171 0 -195 -25z"/>
<path d="M6335 215 c-31 -30 -33 -82 -4 -119 l20 -26 179 0 179 0 20 26 c29
37 27 89 -4 119 -24 25 -27 25 -195 25 -168 0 -171 0 -195 -25z"/>
<path d="M77 213 c-4 -3 -7 -47 -7 -98 0 -57 -4 -95 -12 -103 -9 -9 35 -12
197 -12 l210 0 -180 110 c-176 108 -195 117 -208 103z"/>
<path d="M1327 213 c-4 -3 -7 -47 -7 -98 0 -57 -4 -95 -12 -103 -9 -9 35 -12
197 -12 l210 0 -180 110 c-176 108 -195 117 -208 103z"/>
<path d="M3017 213 c-4 -3 -7 -47 -7 -98 0 -57 -4 -95 -12 -103 -9 -9 35 -12
197 -12 l210 0 -180 110 c-176 108 -195 117 -208 103z"/>
<path d="M4777 113 c-4 -3 -7 -25 -7 -48 0 -22 -5 -46 -12 -53 -9 -9 38 -12
215 -12 125 0 227 2 227 4 0 13 -122 82 -172 98 -59 18 -236 26 -251 11z"/>
</g>
</svg>
